HIERARCHY
ROOT Hips
{
  OFFSET 51.7939 84.6963 33.208
  CHANNELS 6 Xposition Yposition Zposition Zrotation Xrotation Yrotation
  JOINT spine
  {
    OFFSET 0 5.95438 0.342407
    CHANNELS 3 Zrotation Xrotation Yrotation
    JOINT spine1
    {
      OFFSET 0 8.85602 0
      CHANNELS 3 Zrotation Xrotation Yrotation
      JOINT spine2
      {
        OFFSET 0 8.48567 0
        CHANNELS 3 Zrotation Xrotation Yrotation
        JOINT Neck
        {
          OFFSET 0 21.7863 1.0387
          CHANNELS 3 Zrotation Xrotation Yrotation
          JOINT Head
          {
            OFFSET 0 6.5822 0
            CHANNELS 3 Zrotation Xrotation Yrotation
            End Site
            {
              OFFSET 0 15.9326 -5.25436
            }
          }
        }
        JOINT RightShoulder
        {
          OFFSET -3.57307 9.16386 -0.497525
          CHANNELS 3 Zrotation Xrotation Yrotation
          JOINT RightArm
          {
            OFFSET 0 12.0192 0
            CHANNELS 3 Zrotation Xrotation Yrotation
            JOINT RightArmRoll
            {
              OFFSET 0 6.06755 0
              CHANNELS 3 Zrotation Xrotation Yrotation
              JOINT RightForeArm
              {
                OFFSET 0 17.6726 0
                CHANNELS 3 Zrotation Xrotation Yrotation
                JOINT RightForeArmRoll
                {
                  OFFSET 0 6.80873 0
                  CHANNELS 3 Zrotation Xrotation Yrotation
                  JOINT RightHand
                  {
                    OFFSET 0 13.6636 0
                    CHANNELS 3 Zrotation Xrotation Yrotation
                    End Site
                    {
                      OFFSET 0 0 0
                    }
                  }
                }
              }
            }
          }
        }
        JOINT LeftShoulder
        {
          OFFSET 3.57307 9.16386 -0.497525
          CHANNELS 3 Zrotation Xrotation Yrotation
          JOINT LeftArm
          {
            OFFSET 0 12.0192 0
            CHANNELS 3 Zrotation Xrotation Yrotation
            JOINT LeftArmRoll
            {
              OFFSET 0 6.06755 0
              CHANNELS 3 Zrotation Xrotation Yrotation
              JOINT LeftForeArm
              {
                OFFSET 0 17.6726 0
                CHANNELS 3 Zrotation Xrotation Yrotation
                JOINT LeftForeArmRoll
                {
                  OFFSET 0 6.80872 0
                  CHANNELS 3 Zrotation Xrotation Yrotation
                  JOINT LeftHand
                  {
                    OFFSET 0 13.6636 0
                    CHANNELS 3 Zrotation Xrotation Yrotation
                    End Site
                    {
                      OFFSET 0 0 0
                    }
                  }
                }
              }
            }
          }
        }
      }
    }
  }
  JOINT RightUpLeg
  {
    OFFSET -5.27774 -0.967797 -0.811858
    CHANNELS 3 Zrotation Xrotation Yrotation
    JOINT RightUpLegRoll
    {
      OFFSET 0 16.0214 0
      CHANNELS 3 Zrotation Xrotation Yrotation
      JOINT RightLeg
      {
        OFFSET 0 -19.8401 0
        CHANNELS 3 Zrotation Xrotation Yrotation
        JOINT RightLegRoll
        {
          OFFSET 0 19.905 0
          CHANNELS 3 Zrotation Xrotation Yrotation
          JOINT RightFoot
          {
            OFFSET 0 16.5675 0
            CHANNELS 3 Zrotation Xrotation Yrotation
            JOINT RightToeBase
            {
              OFFSET 0 13.8496 0
              CHANNELS 3 Zrotation Xrotation Yrotation
              End Site
              {
                OFFSET 0.00587034 6.70727 -0.773117
              }
            }
          }
        }
      }
    }
  }
  JOINT LeftUpLeg
  {
    OFFSET 5.27774 -0.967797 -0.811858
    CHANNELS 3 Zrotation Xrotation Yrotation
    JOINT LeftUpLegRoll
    {
      OFFSET 0 16.0215 0
      CHANNELS 3 Zrotation Xrotation Yrotation
      JOINT LeftLeg
      {
        OFFSET 0 19.84 0
        CHANNELS 3 Zrotation Xrotation Yrotation
        JOINT LeftLegRoll
        {
          OFFSET 0 20.089 0
          CHANNELS 3 Zrotation Xrotation Yrotation
          JOINT LeftFoot
          {
            OFFSET 0 16.3835 0
            CHANNELS 3 Zrotation Xrotation Yrotation
            JOINT LeftToeBase
            {
              OFFSET 0 13.8496 0
              CHANNELS 3 Zrotation Xrotation Yrotation
              End Site
              {
                OFFSET -0.0263083 6.70728 -0.773117
              }
            }
          }
        }
      }
    }
  }
}
MOTION
Frames: 4
Frame Time: 0.00208333
48.9583 54.4584 -7.15179 -2.73465 -18.7818 3.54834 -0.211576 -1.25492 -0.260296 -0.429678 1.48315 -0.513013 -0.423792 3.12819 -0.506011 6.40946 18.514 -3.44981 -2.574 14.0278 -0.889196 91.238 -2.16251 -4.0659 81.5296 32.6031 11.2618 2.50301e-006 5.97075e-006 -1.79438e-006 -3.63786 -0.0275807 -1.99246 -1.04499e-005 -2.89201e-006 -3.01161 8.03009 -4.95138 0.697617 -66.7054 -9.75038 6.10784 -108.877 31.3556 12.9347 -2.22639e-014 1.27222e-014 -2.34566e-014 3.64949 -0.0426093 1.99337 1.81847e-006 -1.32537e-006 3.01161 -8.03008 -4.95138 -0.697622 174.412 74.0708 7.64039 180 3.0496e-005 177.844 -34.1405 79.2218 35.3846 2.56574e-006 -4.47282e-006 2.78969 -17.1024 64.3899 16.8857 8.13649 25.2327 -3.48773 -171.391 74.5269 -2.61961 -1.06817e-005 1.05815e-005 -2.16767 131.084 -80.0977 127.437 -5.41347e-006 3.00303e-007 -2.5788 15.4547 59.1827 -14.0192 -8.13649 25.2327 3.48773 
48.9584 54.4552 -7.15723 -2.73057 -18.7858 3.54569 -0.211221 -1.24973 -0.260306 -0.429429 1.49431 -0.512617 -0.423554 3.13934 -0.505624 6.39795 18.5305 -3.43568 -2.55557 14.0469 -0.878881 91.2386 -2.13197 -4.05725 81.5444 32.4986 11.2638 2.50301e-006 5.97075e-006 -1.79438e-006 -3.63783 -0.0276093 -1.99246 -1.04499e-005 -2.89201e-006 -3.01161 8.03009 -4.95138 0.697617 -66.7416 -9.76015 6.11334 -108.834 31.388 12.904 5.96354e-015 -3.18055e-015 4.77083e-015 3.64953 -0.0426093 1.99337 1.81847e-006 -1.32537e-006 3.01161 -8.03008 -4.95138 -0.697622 174.439 74.073 7.61546 180 3.0496e-005 177.844 -34.176 79.2275 35.4193 2.56574e-006 -4.47282e-006 2.79015 -17.1058 64.3953 16.8894 8.13649 25.2327 -3.48773 -171.439 74.5301 -2.59336 -1.06817e-005 1.05815e-005 -2.16781 131.079 -80.1038 127.437 -5.41347e-006 3.00303e-007 -2.57856 15.454 59.184 -14.0192 -8.13649 25.2327 3.48773 
48.9609 54.4562 -7.14825 -2.72672 -18.7897 3.54259 -0.210936 -1.24478 -0.260336 -0.429362 1.50502 -0.512261 -0.423498 3.15006 -0.505274 6.38904 18.5472 -3.42218 -2.5396 14.0661 -0.868063 91.2402 -2.10058 -4.04846 81.5577 32.3919 11.2676 2.50301e-006 5.97075e-006 -1.79438e-006 -3.63781 -0.0276269 -1.99246 -1.04499e-005 -2.89201e-006 -3.01161 8.03009 -4.95138 0.697617 -66.7749 -9.77027 6.11902 -108.793 31.4193 12.8736 -2.38542e-015 3.18055e-015 -4.37326e-015 3.64959 -0.0426093 1.99337 1.81847e-006 -1.32537e-006 3.01161 -8.03008 -4.95138 -0.697622 174.467 74.0747 7.59026 180 3.0496e-005 177.844 -34.2109 79.2336 35.4534 2.56574e-006 -4.47282e-006 2.79058 -17.1089 64.4001 16.8929 8.13649 25.2327 -3.48773 -171.484 74.5329 -2.57007 -1.06817e-005 1.05815e-005 -2.16789 131.074 -80.1097 127.437 -5.41347e-006 3.00303e-007 -2.57834 15.4534 59.1855 -14.0193 -8.13649 25.2327 3.48773 
48.9612 54.4576 -7.15817 -2.72304 -18.7936 3.53915 -0.210701 -1.23999 -0.26038 -0.429422 1.51542 -0.511933 -0.423568 3.16045 -0.50495 6.38194 18.5641 -3.40914 -2.52535 14.0856 -0.856892 91.2427 -2.06859 -4.03956 81.5701 32.2838 11.2725 2.50301e-006 5.97075e-006 -1.79438e-006 -3.63779 -0.027637 -1.99246 -1.04499e-005 -2.89201e-006 -3.01161 8.03009 -4.95138 0.697617 -66.8063 -9.78062 6.12481 -108.752 31.4499 12.8434 2.38542e-015 9.54166e-015 3.97569e-016 3.64966 -0.0426093 1.99337 1.81847e-006 -1.32537e-006 3.01161 -8.03008 -4.95138 -0.697622 174.495 74.0763 7.56487 180 3.0496e-005 177.844 -34.2454 79.24 35.4871 2.56574e-006 -4.47282e-006 2.79099 -17.1118 64.4047 16.8962 8.13649 25.2327 -3.48773 -171.526 74.5356 -2.54886 -1.06817e-005 1.05815e-005 -2.16792 131.068 -80.1157 127.438 -5.41347e-006 3.00303e-007 -2.57814 15.4529 59.1874 -14.0196 -8.13649 25.2327 3.48773 
